<mxfile host="app.diagrams.net" modified="2020-08-03T00:48:51.635Z" agent="5.0 (Windows NT 10.0; Win64; x64) AppleWebKit/537.36 (KHTML, like Gecko) Chrome/84.0.4147.105 Safari/537.36" etag="hRioXRzVLZZgJMcVpJTq" version="13.5.4" type="github">
  <diagram id="1zE0CY0DRsBAxS0jNYkQ" name="Page-1">
    <mxGraphModel dx="1483" dy="829" grid="1" gridSize="10" guides="1" tooltips="1" connect="1" arrows="1" fold="1" page="1" pageScale="1" pageWidth="850" pageHeight="1100" math="0" shadow="0">
      <root>
        <mxCell id="0" />
        <mxCell id="1" parent="0" />
        <mxCell id="owZdXx2rTR2LN0gb4Scp-3" value="" style="edgeStyle=orthogonalEdgeStyle;rounded=0;orthogonalLoop=1;jettySize=auto;html=1;" parent="1" source="owZdXx2rTR2LN0gb4Scp-1" target="owZdXx2rTR2LN0gb4Scp-2" edge="1">
          <mxGeometry relative="1" as="geometry" />
        </mxCell>
        <mxCell id="owZdXx2rTR2LN0gb4Scp-1" value="" style="ellipse;whiteSpace=wrap;html=1;aspect=fixed;fillColor=#0050ef;strokeColor=#001DBC;fontColor=#ffffff;" parent="1" vertex="1">
          <mxGeometry x="325" y="80" width="30" height="30" as="geometry" />
        </mxCell>
        <mxCell id="owZdXx2rTR2LN0gb4Scp-9" value="" style="edgeStyle=orthogonalEdgeStyle;rounded=0;orthogonalLoop=1;jettySize=auto;html=1;" parent="1" source="owZdXx2rTR2LN0gb4Scp-2" target="owZdXx2rTR2LN0gb4Scp-8" edge="1">
          <mxGeometry relative="1" as="geometry" />
        </mxCell>
        <mxCell id="owZdXx2rTR2LN0gb4Scp-2" value="User clicks &quot;create playlist button&quot;" style="rounded=1;whiteSpace=wrap;html=1;" parent="1" vertex="1">
          <mxGeometry x="280" y="150" width="120" height="60" as="geometry" />
        </mxCell>
        <mxCell id="owZdXx2rTR2LN0gb4Scp-8" value="Brought to create playlist window" style="rounded=1;whiteSpace=wrap;html=1;" parent="1" vertex="1">
          <mxGeometry x="280" y="260" width="120" height="60" as="geometry" />
        </mxCell>
        <mxCell id="owZdXx2rTR2LN0gb4Scp-12" value="Enter title" style="rounded=1;whiteSpace=wrap;html=1;" parent="1" vertex="1">
          <mxGeometry x="120" y="410" width="85" height="50" as="geometry" />
        </mxCell>
        <mxCell id="owZdXx2rTR2LN0gb4Scp-13" value="Select up to 5 preferred genres" style="rounded=1;whiteSpace=wrap;html=1;" parent="1" vertex="1">
          <mxGeometry x="330" y="410" width="80" height="60" as="geometry" />
        </mxCell>
        <mxCell id="owZdXx2rTR2LN0gb4Scp-14" value="Preferred artists" style="rounded=1;whiteSpace=wrap;html=1;" parent="1" vertex="1">
          <mxGeometry x="440" y="420" width="80" height="50" as="geometry" />
        </mxCell>
        <mxCell id="owZdXx2rTR2LN0gb4Scp-20" value="" style="endArrow=none;html=1;" parent="1" edge="1">
          <mxGeometry width="50" height="50" relative="1" as="geometry">
            <mxPoint x="280" y="360" as="sourcePoint" />
            <mxPoint x="400" y="360" as="targetPoint" />
          </mxGeometry>
        </mxCell>
        <mxCell id="owZdXx2rTR2LN0gb4Scp-24" value="" style="endArrow=classic;html=1;" parent="1" target="owZdXx2rTR2LN0gb4Scp-12" edge="1">
          <mxGeometry width="50" height="50" relative="1" as="geometry">
            <mxPoint x="310" y="360" as="sourcePoint" />
            <mxPoint x="400" y="560" as="targetPoint" />
          </mxGeometry>
        </mxCell>
        <mxCell id="owZdXx2rTR2LN0gb4Scp-25" value="" style="endArrow=classic;html=1;entryX=0.5;entryY=0;entryDx=0;entryDy=0;" parent="1" target="owZdXx2rTR2LN0gb4Scp-13" edge="1">
          <mxGeometry width="50" height="50" relative="1" as="geometry">
            <mxPoint x="340" y="360" as="sourcePoint" />
            <mxPoint x="380" y="530" as="targetPoint" />
          </mxGeometry>
        </mxCell>
        <mxCell id="owZdXx2rTR2LN0gb4Scp-27" value="" style="endArrow=classic;html=1;entryX=0.5;entryY=0;entryDx=0;entryDy=0;" parent="1" edge="1">
          <mxGeometry width="50" height="50" relative="1" as="geometry">
            <mxPoint x="360" y="360" as="sourcePoint" />
            <mxPoint x="485" y="420" as="targetPoint" />
          </mxGeometry>
        </mxCell>
        <mxCell id="owZdXx2rTR2LN0gb4Scp-31" value="" style="endArrow=classic;html=1;exitX=0.5;exitY=1;exitDx=0;exitDy=0;" parent="1" source="owZdXx2rTR2LN0gb4Scp-8" edge="1">
          <mxGeometry width="50" height="50" relative="1" as="geometry">
            <mxPoint x="460" y="300" as="sourcePoint" />
            <mxPoint x="340" y="360" as="targetPoint" />
          </mxGeometry>
        </mxCell>
        <mxCell id="owZdXx2rTR2LN0gb4Scp-32" value="" style="endArrow=none;html=1;" parent="1" edge="1">
          <mxGeometry width="50" height="50" relative="1" as="geometry">
            <mxPoint x="280" y="560" as="sourcePoint" />
            <mxPoint x="400" y="560" as="targetPoint" />
          </mxGeometry>
        </mxCell>
        <mxCell id="owZdXx2rTR2LN0gb4Scp-35" value="" style="endArrow=classic;html=1;exitX=0.5;exitY=1;exitDx=0;exitDy=0;" parent="1" source="owZdXx2rTR2LN0gb4Scp-12" edge="1">
          <mxGeometry width="50" height="50" relative="1" as="geometry">
            <mxPoint x="330" y="550" as="sourcePoint" />
            <mxPoint x="310" y="560" as="targetPoint" />
          </mxGeometry>
        </mxCell>
        <mxCell id="owZdXx2rTR2LN0gb4Scp-36" value="" style="endArrow=classic;html=1;exitX=0.5;exitY=1;exitDx=0;exitDy=0;" parent="1" source="owZdXx2rTR2LN0gb4Scp-13" edge="1">
          <mxGeometry width="50" height="50" relative="1" as="geometry">
            <mxPoint x="400" y="550" as="sourcePoint" />
            <mxPoint x="340" y="560" as="targetPoint" />
          </mxGeometry>
        </mxCell>
        <mxCell id="owZdXx2rTR2LN0gb4Scp-37" value="" style="endArrow=classic;html=1;exitX=0.5;exitY=1;exitDx=0;exitDy=0;" parent="1" source="owZdXx2rTR2LN0gb4Scp-14" edge="1">
          <mxGeometry width="50" height="50" relative="1" as="geometry">
            <mxPoint x="460" y="550" as="sourcePoint" />
            <mxPoint x="360" y="560" as="targetPoint" />
          </mxGeometry>
        </mxCell>
        <mxCell id="gYqPKJNiX3rPBvJ6yrOD-2" value="" style="edgeStyle=orthogonalEdgeStyle;rounded=0;orthogonalLoop=1;jettySize=auto;html=1;" edge="1" parent="1" source="owZdXx2rTR2LN0gb4Scp-39" target="gYqPKJNiX3rPBvJ6yrOD-1">
          <mxGeometry relative="1" as="geometry" />
        </mxCell>
        <mxCell id="owZdXx2rTR2LN0gb4Scp-39" value="&lt;div&gt;User clicks &quot;done&quot;&lt;/div&gt;" style="rounded=1;whiteSpace=wrap;html=1;" parent="1" vertex="1">
          <mxGeometry x="275" y="600" width="120" height="60" as="geometry" />
        </mxCell>
        <mxCell id="owZdXx2rTR2LN0gb4Scp-40" value="Playlist created" style="rounded=1;whiteSpace=wrap;html=1;" parent="1" vertex="1">
          <mxGeometry x="275" y="750" width="120" height="60" as="geometry" />
        </mxCell>
        <mxCell id="owZdXx2rTR2LN0gb4Scp-42" value="" style="ellipse;whiteSpace=wrap;html=1;aspect=fixed;" parent="1" vertex="1">
          <mxGeometry x="320" y="860" width="30" height="30" as="geometry" />
        </mxCell>
        <mxCell id="owZdXx2rTR2LN0gb4Scp-43" value="" style="ellipse;whiteSpace=wrap;html=1;aspect=fixed;" parent="1" vertex="1">
          <mxGeometry x="327.5" y="867.5" width="15" height="15" as="geometry" />
        </mxCell>
        <mxCell id="owZdXx2rTR2LN0gb4Scp-50" value="" style="endArrow=classic;html=1;exitX=0.5;exitY=1;exitDx=0;exitDy=0;entryX=0.5;entryY=0;entryDx=0;entryDy=0;" parent="1" source="owZdXx2rTR2LN0gb4Scp-40" target="owZdXx2rTR2LN0gb4Scp-42" edge="1">
          <mxGeometry width="50" height="50" relative="1" as="geometry">
            <mxPoint x="440" y="860" as="sourcePoint" />
            <mxPoint x="490" y="810" as="targetPoint" />
          </mxGeometry>
        </mxCell>
        <mxCell id="owZdXx2rTR2LN0gb4Scp-53" value="" style="endArrow=classic;html=1;entryX=0.5;entryY=0;entryDx=0;entryDy=0;" parent="1" target="owZdXx2rTR2LN0gb4Scp-39" edge="1">
          <mxGeometry width="50" height="50" relative="1" as="geometry">
            <mxPoint x="335" y="560" as="sourcePoint" />
            <mxPoint x="360" y="570" as="targetPoint" />
          </mxGeometry>
        </mxCell>
        <mxCell id="gYqPKJNiX3rPBvJ6yrOD-4" value="" style="edgeStyle=orthogonalEdgeStyle;rounded=0;orthogonalLoop=1;jettySize=auto;html=1;" edge="1" parent="1" source="gYqPKJNiX3rPBvJ6yrOD-1" target="owZdXx2rTR2LN0gb4Scp-40">
          <mxGeometry relative="1" as="geometry" />
        </mxCell>
        <mxCell id="gYqPKJNiX3rPBvJ6yrOD-6" style="edgeStyle=orthogonalEdgeStyle;rounded=0;orthogonalLoop=1;jettySize=auto;html=1;entryX=1;entryY=0.5;entryDx=0;entryDy=0;" edge="1" parent="1" source="gYqPKJNiX3rPBvJ6yrOD-1" target="owZdXx2rTR2LN0gb4Scp-8">
          <mxGeometry relative="1" as="geometry">
            <mxPoint x="410" y="290" as="targetPoint" />
            <Array as="points">
              <mxPoint x="600" y="705" />
              <mxPoint x="600" y="290" />
            </Array>
          </mxGeometry>
        </mxCell>
        <mxCell id="gYqPKJNiX3rPBvJ6yrOD-1" value="" style="rhombus;whiteSpace=wrap;html=1;" vertex="1" parent="1">
          <mxGeometry x="302.5" y="680" width="65" height="50" as="geometry" />
        </mxCell>
        <mxCell id="gYqPKJNiX3rPBvJ6yrOD-5" value="No errors" style="text;html=1;strokeColor=none;fillColor=none;align=center;verticalAlign=middle;whiteSpace=wrap;rounded=0;" vertex="1" parent="1">
          <mxGeometry x="350" y="720" width="40" height="20" as="geometry" />
        </mxCell>
        <mxCell id="gYqPKJNiX3rPBvJ6yrOD-7" value="Errors" style="text;html=1;strokeColor=none;fillColor=none;align=center;verticalAlign=middle;whiteSpace=wrap;rounded=0;" vertex="1" parent="1">
          <mxGeometry x="490" y="680" width="40" height="20" as="geometry" />
        </mxCell>
        <mxCell id="gYqPKJNiX3rPBvJ6yrOD-10" value="Select one mood" style="rounded=1;whiteSpace=wrap;html=1;" vertex="1" parent="1">
          <mxGeometry x="227.5" y="412.5" width="92.5" height="55" as="geometry" />
        </mxCell>
        <mxCell id="gYqPKJNiX3rPBvJ6yrOD-11" style="edgeStyle=orthogonalEdgeStyle;rounded=0;orthogonalLoop=1;jettySize=auto;html=1;exitX=0.5;exitY=1;exitDx=0;exitDy=0;" edge="1" parent="1" source="owZdXx2rTR2LN0gb4Scp-12" target="owZdXx2rTR2LN0gb4Scp-12">
          <mxGeometry relative="1" as="geometry" />
        </mxCell>
        <mxCell id="gYqPKJNiX3rPBvJ6yrOD-12" value="" style="endArrow=classic;html=1;entryX=0.454;entryY=-0.004;entryDx=0;entryDy=0;entryPerimeter=0;" edge="1" parent="1" target="gYqPKJNiX3rPBvJ6yrOD-10">
          <mxGeometry width="50" height="50" relative="1" as="geometry">
            <mxPoint x="327.5" y="359.11" as="sourcePoint" />
            <mxPoint x="222.5" y="412.4998305084746" as="targetPoint" />
          </mxGeometry>
        </mxCell>
        <mxCell id="gYqPKJNiX3rPBvJ6yrOD-13" value="" style="endArrow=classic;html=1;exitX=0.5;exitY=1;exitDx=0;exitDy=0;" edge="1" parent="1">
          <mxGeometry width="50" height="50" relative="1" as="geometry">
            <mxPoint x="280" y="467.5" as="sourcePoint" />
            <mxPoint x="330" y="560" as="targetPoint" />
          </mxGeometry>
        </mxCell>
      </root>
    </mxGraphModel>
  </diagram>
</mxfile>
